<?xml version="1.0" encoding="UTF-8"?>
<svg width="55" height="55" viewBox="0 0 55 55" xmlns="http://www.w3.org/2000/svg">
  <!-- Classic painter's palette shape -->
  <path d="M28.5,8c-10.8,0-19.5,8.7-19.5,19.5S17.7,47,28.5,47c1.6,0,3-1.3,3-3c0-0.7-0.3-1.4-0.7-2c-0.4-0.5-0.8-1.2-0.8-2c0-1.6,1.4-3,3-3h3.2c7.5,0,13.6-6.1,13.6-13.6C49.8,16.7,40.2,8,28.5,8z" stroke="#FFFFFF" stroke-width="3" fill="none"/>
  <!-- Thumb hole -->
  <circle cx="20" cy="36" r="3" fill="#FFFFFF"/>
  <!-- Paint blobs -->
  <circle cx="18" cy="25" r="3" fill="#FF2B34"/>
  <circle cx="27" cy="18" r="3" fill="#FFD100"/>
  <circle cx="37" cy="22" r="3" fill="#00EA11"/>
  <circle cx="41" cy="30" r="3" fill="#00A0FF"/>
</svg>
